<?xml version="1.0" encoding="utf-8" standalone="no"?>
<!DOCTYPE svg PUBLIC "-//W3C//DTD SVG 1.1//EN"
  "http://www.w3.org/Graphics/SVG/1.1/DTD/svg11.dtd">
<svg xmlns:xlink="http://www.w3.org/1999/xlink" width="841.660175pt" height="236.133374pt" viewBox="0 0 841.660175 236.133374" xmlns="http://www.w3.org/2000/svg" version="1.1">
 <metadata>
  <rdf:RDF xmlns:dc="http://purl.org/dc/elements/1.1/" xmlns:cc="http://creativecommons.org/ns#" xmlns:rdf="http://www.w3.org/1999/02/22-rdf-syntax-ns#">
   <cc:Work>
    <dc:type rdf:resource="http://purl.org/dc/dcmitype/StillImage"/>
    <dc:date>2025-10-23T01:36:13.813270</dc:date>
    <dc:format>image/svg+xml</dc:format>
    <dc:creator>
     <cc:Agent>
      <dc:title>Matplotlib v3.10.0, https://matplotlib.org/</dc:title>
     </cc:Agent>
    </dc:creator>
   </cc:Work>
  </rdf:RDF>
 </metadata>
 <defs>
  <style type="text/css">*{stroke-linejoin: round; stroke-linecap: butt}</style>
 </defs>
 <g id="figure_1">
  <g id="patch_1">
   <path d="M 0 236.133374 
L 841.660175 236.133374 
L 841.660175 0 
L 0 0 
z
" style="fill: #ffffff"/>
  </g>
  <g id="axes_1">
   <g id="patch_2">
    <path d="M 53.260175 174.896199 
L 276.460175 174.896199 
L 276.460175 36.296199 
L 53.260175 36.296199 
z
" style="fill: #ffffff"/>
   </g>
   <g id="matplotlib.axis_1">
    <g id="xtick_1">
     <g id="line2d_1">
      <defs>
       <path id="mc352634326" d="M 0 0 
L 0 3.5 
" style="stroke: #000000; stroke-width: 0.8"/>
      </defs>
      <g>
       <use xlink:href="#mc352634326" x="67.210175" y="174.896199" style="stroke: #000000; stroke-width: 0.8"/>
      </g>
     </g>
     <g id="text_1">
      <!-- \texttt{TD-1} -->
      <g transform="translate(45.97851 214.017495) rotate(-40) scale(0.18 -0.18)">
       <defs>
        <path id="CMTT12-54" d="M 1856 3533 
L 2707 3533 
L 2707 3221 
C 2707 3105 2707 2958 2912 2958 
C 3123 2958 3123 3099 3123 3221 
L 3123 3642 
C 3123 3840 3085 3904 2867 3904 
L 429 3904 
C 218 3904 166 3853 166 3642 
L 166 3221 
C 166 3105 166 2958 371 2958 
C 582 2958 582 3099 582 3221 
L 582 3533 
L 1440 3533 
L 1440 371 
L 1133 371 
C 1043 371 877 371 877 186 
C 877 0 1043 0 1133 0 
L 2163 0 
C 2253 0 2419 0 2419 186 
C 2419 371 2253 371 2163 371 
L 1856 371 
L 1856 3533 
z
" transform="scale(0.015625)"/>
        <path id="CMTT12-44" d="M 397 3904 
C 307 3904 141 3904 141 3719 
C 141 3533 307 3533 397 3533 
L 525 3533 
L 525 371 
L 397 371 
C 307 371 141 371 141 186 
C 141 0 307 0 397 0 
L 1670 0 
C 2496 0 3046 908 3046 1917 
C 3046 2939 2515 3904 1664 3904 
L 397 3904 
z
M 941 371 
L 941 3533 
L 1549 3533 
C 2291 3533 2630 2652 2630 1923 
C 2630 1151 2253 371 1555 371 
L 941 371 
z
" transform="scale(0.015625)"/>
        <path id="CMTT12-2d" d="M 2650 1728 
C 2733 1728 2938 1728 2938 1933 
C 2938 2144 2739 2144 2650 2144 
L 640 2144 
C 557 2144 352 2144 352 1939 
C 352 1728 550 1728 640 1728 
L 2650 1728 
z
" transform="scale(0.015625)"/>
        <path id="CMTT12-31" d="M 1946 3737 
C 1946 3833 1946 4000 1760 4000 
C 1651 4000 1613 3942 1574 3856 
C 1453 3574 1242 3227 902 3200 
C 806 3200 672 3187 672 3021 
C 672 2912 736 2835 877 2835 
C 1235 2835 1510 3104 1530 3117 
L 1530 371 
L 966 371 
C 877 371 704 371 704 186 
C 704 0 877 0 966 0 
L 2509 0 
C 2598 0 2771 0 2771 186 
C 2771 371 2598 371 2509 371 
L 1946 371 
L 1946 3737 
z
" transform="scale(0.015625)"/>
       </defs>
       <use xlink:href="#CMTT12-54" transform="scale(0.996264)"/>
       <use xlink:href="#CMTT12-44" transform="translate(51.266111 0) scale(0.996264)"/>
       <use xlink:href="#CMTT12-2d" transform="translate(102.532222 0) scale(0.996264)"/>
       <use xlink:href="#CMTT12-31" transform="translate(153.798333 0) scale(0.996264)"/>
      </g>
     </g>
    </g>
    <g id="xtick_2">
     <g id="line2d_2">
      <g>
       <use xlink:href="#mc352634326" x="95.110175" y="174.896199" style="stroke: #000000; stroke-width: 0.8"/>
      </g>
     </g>
     <g id="text_2">
      <!-- \texttt{TD-5} -->
      <g transform="translate(73.87851 214.017495) rotate(-40) scale(0.18 -0.18)">
       <defs>
        <path id="CMTT12-35" d="M 2483 3533 
C 2573 3533 2739 3533 2739 3719 
C 2739 3904 2573 3904 2483 3904 
L 819 3904 
C 614 3904 563 3853 563 3656 
L 563 1954 
C 563 1864 563 1705 755 1705 
C 858 1705 883 1737 934 1800 
C 1126 2023 1408 2125 1741 2125 
C 2240 2125 2547 1673 2547 1222 
C 2547 708 2099 307 1562 307 
C 1229 307 890 466 774 765 
C 800 791 845 836 845 950 
C 845 1122 698 1210 589 1210 
C 531 1210 326 1178 326 930 
C 326 395 858 -64 1562 -64 
C 2336 -64 2963 509 2963 1222 
C 2963 1865 2483 2496 1741 2496 
C 1530 2496 1248 2458 979 2310 
L 979 3533 
L 2483 3533 
z
" transform="scale(0.015625)"/>
       </defs>
       <use xlink:href="#CMTT12-54" transform="scale(0.996264)"/>
       <use xlink:href="#CMTT12-44" transform="translate(51.266111 0) scale(0.996264)"/>
       <use xlink:href="#CMTT12-2d" transform="translate(102.532222 0) scale(0.996264)"/>
       <use xlink:href="#CMTT12-35" transform="translate(153.798333 0) scale(0.996264)"/>
      </g>
     </g>
    </g>
    <g id="xtick_3">
     <g id="line2d_3">
      <g>
       <use xlink:href="#mc352634326" x="123.010175" y="174.896199" style="stroke: #000000; stroke-width: 0.8"/>
      </g>
     </g>
     <g id="text_3">
      <!-- \texttt{TD-10} -->
      <g transform="translate(94.709534 219.94907) rotate(-40) scale(0.18 -0.18)">
       <defs>
        <path id="CMTT12-30" d="M 2970 1974 
C 2970 3170 2336 4019 1645 4019 
C 947 4019 320 3158 320 1981 
C 320 785 954 -64 1645 -64 
C 2342 -64 2970 798 2970 1974 
z
M 1645 307 
C 1139 307 736 1086 736 2045 
C 736 3004 1178 3648 1645 3648 
C 2112 3648 2554 3004 2554 2045 
C 2554 1092 2150 307 1645 307 
z
" transform="scale(0.015625)"/>
       </defs>
       <use xlink:href="#CMTT12-54" transform="scale(0.996264)"/>
       <use xlink:href="#CMTT12-44" transform="translate(51.266111 0) scale(0.996264)"/>
       <use xlink:href="#CMTT12-2d" transform="translate(102.532222 0) scale(0.996264)"/>
       <use xlink:href="#CMTT12-31" transform="translate(153.798333 0) scale(0.996264)"/>
       <use xlink:href="#CMTT12-30" transform="translate(205.064443 0) scale(0.996264)"/>
      </g>
     </g>
    </g>
    <g id="xtick_4">
     <g id="line2d_4">
      <g>
       <use xlink:href="#mc352634326" x="150.910175" y="174.896199" style="stroke: #000000; stroke-width: 0.8"/>
      </g>
     </g>
     <g id="text_4">
      <!-- \texttt{TD-25} -->
      <g transform="translate(122.609534 219.94907) rotate(-40) scale(0.18 -0.18)">
       <defs>
        <path id="CMTT12-32" d="M 2227 1403 
C 2317 1479 2963 2026 2963 2734 
C 2963 3459 2362 3968 1562 3968 
C 819 3968 326 3413 326 2879 
C 326 2611 550 2592 589 2592 
C 704 2592 845 2680 845 2852 
C 845 2973 800 3011 768 3037 
C 858 3374 1152 3597 1523 3597 
C 2067 3597 2547 3285 2547 2732 
C 2547 2234 2170 1852 1824 1554 
L 416 337 
C 346 280 326 261 326 185 
C 326 0 499 0 589 0 
L 2822 0 
C 2963 38 2963 165 2963 261 
L 2963 396 
C 2963 510 2963 657 2758 657 
C 2547 657 2547 524 2547 371 
L 1005 371 
L 2227 1403 
z
" transform="scale(0.015625)"/>
       </defs>
       <use xlink:href="#CMTT12-54" transform="scale(0.996264)"/>
       <use xlink:href="#CMTT12-44" transform="translate(51.266111 0) scale(0.996264)"/>
       <use xlink:href="#CMTT12-2d" transform="translate(102.532222 0) scale(0.996264)"/>
       <use xlink:href="#CMTT12-32" transform="translate(153.798333 0) scale(0.996264)"/>
       <use xlink:href="#CMTT12-35" transform="translate(205.064443 0) scale(0.996264)"/>
      </g>
     </g>
    </g>
    <g id="xtick_5">
     <g id="line2d_5">
      <g>
       <use xlink:href="#mc352634326" x="178.810175" y="174.896199" style="stroke: #000000; stroke-width: 0.8"/>
      </g>
     </g>
     <g id="text_5">
      <!-- \texttt{TD-50} -->
      <g transform="translate(150.509534 219.94907) rotate(-40) scale(0.18 -0.18)">
       <use xlink:href="#CMTT12-54" transform="scale(0.996264)"/>
       <use xlink:href="#CMTT12-44" transform="translate(51.266111 0) scale(0.996264)"/>
       <use xlink:href="#CMTT12-2d" transform="translate(102.532222 0) scale(0.996264)"/>
       <use xlink:href="#CMTT12-35" transform="translate(153.798333 0) scale(0.996264)"/>
       <use xlink:href="#CMTT12-30" transform="translate(205.064443 0) scale(0.996264)"/>
      </g>
     </g>
    </g>
    <g id="xtick_6">
     <g id="line2d_6">
      <g>
       <use xlink:href="#mc352634326" x="206.710175" y="174.896199" style="stroke: #000000; stroke-width: 0.8"/>
      </g>
     </g>
     <g id="text_6">
      <!-- \texttt{TD-100} -->
      <g transform="translate(171.340559 225.880644) rotate(-40) scale(0.18 -0.18)">
       <use xlink:href="#CMTT12-54" transform="scale(0.996264)"/>
       <use xlink:href="#CMTT12-44" transform="translate(51.266111 0) scale(0.996264)"/>
       <use xlink:href="#CMTT12-2d" transform="translate(102.532222 0) scale(0.996264)"/>
       <use xlink:href="#CMTT12-31" transform="translate(153.798333 0) scale(0.996264)"/>
       <use xlink:href="#CMTT12-30" transform="translate(205.064443 0) scale(0.996264)"/>
       <use xlink:href="#CMTT12-30" transform="translate(256.330554 0) scale(0.996264)"/>
      </g>
     </g>
    </g>
    <g id="xtick_7">
     <g id="line2d_7">
      <g>
       <use xlink:href="#mc352634326" x="234.610175" y="174.896199" style="stroke: #000000; stroke-width: 0.8"/>
      </g>
     </g>
     <g id="text_7">
      <!-- \texttt{MC} -->
      <g transform="translate(227.516461 202.154345) rotate(-40) scale(0.18 -0.18)">
       <defs>
        <path id="CMTT12-4d" d="M 1869 2518 
C 1786 2255 1683 1949 1645 1738 
L 1638 1738 
C 1587 2058 1030 3732 1018 3757 
C 947 3904 819 3904 710 3904 
L 371 3904 
C 282 3904 109 3904 109 3719 
C 109 3533 269 3533 435 3533 
L 435 371 
C 269 371 109 371 109 186 
C 109 0 282 0 371 0 
L 858 0 
C 947 0 1120 0 1120 186 
C 1120 371 960 371 794 371 
L 794 3456 
L 800 3456 
C 838 3258 858 3188 934 2958 
L 1389 1534 
C 1402 1483 1459 1304 1645 1304 
C 1722 1304 1830 1355 1882 1470 
C 1914 1566 2496 3358 2496 3448 
L 2496 371 
C 2330 371 2170 371 2170 186 
C 2170 0 2342 0 2432 0 
L 2918 0 
C 3008 0 3181 0 3181 186 
C 3181 371 3021 371 2854 371 
L 2854 3533 
C 3021 3533 3181 3533 3181 3719 
C 3181 3904 3008 3904 2918 3904 
L 2579 3904 
C 2330 3904 2291 3828 2240 3661 
L 1869 2518 
z
" transform="scale(0.015625)"/>
        <path id="CMTT12-43" d="M 3034 3731 
C 3034 3833 3034 3974 2854 3974 
C 2739 3974 2707 3904 2682 3859 
C 2662 3808 2611 3693 2592 3648 
C 2330 3878 2035 3974 1766 3974 
C 941 3974 256 3097 256 1958 
C 256 794 960 -64 1766 -64 
C 2515 -64 3034 526 3034 1086 
C 3034 1282 2899 1282 2822 1282 
C 2733 1282 2630 1250 2618 1143 
C 2566 327 1920 327 1811 327 
C 1216 327 672 1015 672 1968 
C 672 2922 1222 3603 1805 3603 
C 2150 3603 2528 3328 2618 2739 
C 2637 2598 2694 2560 2822 2560 
C 3034 2560 3034 2675 3034 2803 
L 3034 3731 
z
" transform="scale(0.015625)"/>
       </defs>
       <use xlink:href="#CMTT12-4d" transform="scale(0.996264)"/>
       <use xlink:href="#CMTT12-43" transform="translate(51.266111 0) scale(0.996264)"/>
      </g>
     </g>
    </g>
    <g id="xtick_8">
     <g id="line2d_8">
      <g>
       <use xlink:href="#mc352634326" x="262.510175" y="174.896199" style="stroke: #000000; stroke-width: 0.8"/>
      </g>
     </g>
     <g id="text_8">
      <!-- \texttt{TRL} -->
      <g style="fill: #598be7" transform="translate(248.347486 208.08592) rotate(-40) scale(0.18 -0.18)">
       <defs>
        <path id="CMTT12-52" d="M 2176 1950 
C 2528 2153 2720 2497 2720 2842 
C 2720 3370 2253 3904 1498 3904 
L 410 3904 
C 314 3904 154 3904 154 3719 
C 154 3533 320 3533 410 3533 
L 550 3533 
L 550 371 
L 410 371 
C 320 371 154 371 154 186 
C 154 0 314 0 410 0 
L 1107 0 
C 1197 0 1370 0 1370 186 
C 1370 371 1197 371 1107 371 
L 966 371 
L 966 1792 
L 1472 1792 
C 1587 1792 1786 1792 1990 1612 
C 2138 1477 2138 1330 2138 1054 
C 2138 604 2138 418 2259 200 
C 2362 32 2528 -64 2726 -64 
C 3149 -64 3277 374 3277 603 
C 3277 730 3219 812 3066 812 
C 2874 812 2861 661 2861 604 
C 2861 560 2842 307 2726 307 
C 2554 307 2554 588 2554 951 
C 2554 1383 2554 1421 2490 1580 
C 2406 1765 2253 1893 2176 1950 
z
M 1434 2163 
L 966 2163 
L 966 3533 
L 1434 3533 
C 2022 3533 2304 3156 2304 2848 
C 2304 2540 2022 2163 1434 2163 
z
" transform="scale(0.015625)"/>
        <path id="CMTT12-4c" d="M 1107 3533 
L 1440 3533 
C 1530 3533 1696 3533 1696 3719 
C 1696 3904 1530 3904 1440 3904 
L 480 3904 
C 390 3904 218 3904 218 3719 
C 218 3533 390 3533 480 3533 
L 691 3533 
L 691 371 
L 480 371 
C 390 371 218 371 218 186 
C 218 0 390 0 480 0 
L 2810 0 
C 3021 0 3066 58 3066 262 
L 3066 786 
C 3066 895 3066 1042 2861 1042 
C 2650 1042 2650 901 2650 786 
L 2650 371 
L 1107 371 
L 1107 3533 
z
" transform="scale(0.015625)"/>
       </defs>
       <use xlink:href="#CMTT12-54" transform="scale(0.996264)"/>
       <use xlink:href="#CMTT12-52" transform="translate(51.266111 0) scale(0.996264)"/>
       <use xlink:href="#CMTT12-4c" transform="translate(102.532222 0) scale(0.996264)"/>
      </g>
     </g>
    </g>
   </g>
   <g id="matplotlib.axis_2">
    <g id="ytick_1">
     <g id="line2d_9">
      <path d="M 53.260175 174.896199 
L 276.460175 174.896199 
" clip-path="url(#pebedeeb9c2)" style="fill: none; stroke-dasharray: 2.96,1.28; stroke-dashoffset: 0; stroke: #dddddd; stroke-width: 0.8"/>
     </g>
     <g id="line2d_10">
      <defs>
       <path id="mde31e0416b" d="M 0 0 
L -3.5 0 
" style="stroke: #000000; stroke-width: 0.8"/>
      </defs>
      <g>
       <use xlink:href="#mde31e0416b" x="53.260175" y="174.896199" style="stroke: #000000; stroke-width: 0.8"/>
      </g>
     </g>
     <g id="text_9">
      <!-- 0 -->
      <g transform="translate(37.032282 180.375644) scale(0.18 -0.18)">
       <use xlink:href="#CMTT12-30" transform="scale(0.996264)"/>
      </g>
     </g>
    </g>
    <g id="ytick_2">
     <g id="line2d_11">
      <path d="M 53.260175 94.950035 
L 276.460175 94.950035 
" clip-path="url(#pebedeeb9c2)" style="fill: none; stroke-dasharray: 2.96,1.28; stroke-dashoffset: 0; stroke: #dddddd; stroke-width: 0.8"/>
     </g>
     <g id="line2d_12">
      <g>
       <use xlink:href="#mde31e0416b" x="53.260175" y="94.950035" style="stroke: #000000; stroke-width: 0.8"/>
      </g>
     </g>
     <g id="text_10">
      <!-- 50 -->
      <g transform="translate(27.80439 100.429479) scale(0.18 -0.18)">
       <use xlink:href="#CMTT12-35" transform="scale(0.996264)"/>
       <use xlink:href="#CMTT12-30" transform="translate(51.266111 0) scale(0.996264)"/>
      </g>
     </g>
    </g>
    <g id="text_11">
     <!-- Success Rate -->
     <g transform="translate(19.376552 167.115532) rotate(-90) scale(0.2 -0.2)">
      <defs>
       <path id="CMTT12-53" d="M 2797 3757 
C 2797 3859 2797 4000 2618 4000 
C 2483 4000 2470 3949 2394 3680 
C 2080 3955 1715 4000 1491 4000 
C 813 4000 326 3514 326 2951 
C 326 2573 550 2323 589 2285 
C 858 2016 966 1991 1638 1831 
C 2118 1722 2227 1696 2387 1517 
C 2502 1376 2566 1216 2566 1037 
C 2566 691 2291 307 1786 307 
C 1235 307 774 544 742 1107 
C 736 1203 730 1312 538 1312 
C 326 1312 326 1191 326 1063 
L 326 179 
C 326 77 326 -64 506 -64 
C 640 -64 653 -13 730 256 
C 1082 -19 1523 -64 1786 -64 
C 2509 -64 2963 493 2963 1063 
C 2963 1511 2688 1792 2669 1818 
C 2413 2080 2291 2106 1645 2259 
C 1498 2298 1248 2355 1197 2368 
C 934 2464 723 2688 723 2976 
C 723 3315 1043 3629 1485 3629 
C 1965 3629 2291 3373 2374 2829 
C 2394 2707 2406 2624 2586 2624 
C 2797 2624 2797 2739 2797 2867 
L 2797 3757 
z
" transform="scale(0.015625)"/>
       <path id="CMTT12-75" d="M 2675 2491 
C 2675 2688 2637 2752 2419 2752 
L 1997 2752 
C 1907 2752 1741 2752 1741 2567 
C 1741 2381 1907 2381 1997 2381 
L 2259 2381 
L 2259 1000 
C 2259 479 1824 339 1536 339 
C 1030 339 1030 568 1030 766 
L 1030 2491 
C 1030 2688 992 2752 774 2752 
L 352 2752 
C 262 2752 96 2752 96 2567 
C 96 2381 262 2381 352 2381 
L 614 2381 
L 614 732 
C 614 146 998 -32 1491 -32 
C 1882 -32 2125 127 2253 235 
C 2253 0 2406 0 2515 0 
L 2938 0 
C 3027 0 3194 0 3194 186 
C 3194 371 3027 371 2938 371 
L 2675 371 
L 2675 2491 
z
" transform="scale(0.015625)"/>
       <path id="CMTT12-63" d="M 2918 702 
C 2918 868 2758 868 2707 868 
C 2560 868 2534 817 2502 728 
C 2362 377 2048 339 1894 339 
C 1350 339 890 792 890 1385 
C 890 1711 1075 2445 1914 2445 
C 2086 2445 2221 2432 2278 2426 
C 2323 2413 2330 2405 2330 2373 
C 2349 2107 2547 2107 2586 2107 
C 2726 2107 2848 2203 2848 2375 
C 2848 2816 2202 2816 1920 2816 
C 826 2816 474 1922 474 1385 
C 474 607 1069 -32 1837 -32 
C 2694 -32 2918 600 2918 702 
z
" transform="scale(0.015625)"/>
       <path id="CMTT12-65" d="M 2662 1248 
C 2797 1248 2918 1248 2918 1482 
C 2918 2221 2496 2816 1696 2816 
C 954 2816 358 2177 358 1398 
C 358 594 1005 -32 1792 -32 
C 2618 -32 2918 541 2918 709 
C 2918 748 2906 891 2707 891 
C 2586 891 2547 845 2509 748 
C 2349 371 1933 339 1811 339 
C 1280 339 858 748 787 1248 
L 2662 1248 
z
M 794 1600 
C 877 2132 1293 2445 1696 2445 
C 2336 2445 2470 1913 2496 1600 
L 794 1600 
z
" transform="scale(0.015625)"/>
       <path id="CMTT12-73" d="M 2688 2573 
C 2688 2675 2688 2816 2509 2816 
C 2355 2816 2317 2669 2317 2662 
C 2061 2816 1766 2816 1638 2816 
C 595 2816 454 2286 454 2069 
C 454 1807 608 1629 826 1507 
C 1030 1392 1216 1361 1741 1278 
C 1990 1233 2502 1150 2502 799 
C 2502 562 2285 339 1690 339 
C 1280 339 1011 499 877 960 
C 845 1049 826 1120 666 1120 
C 454 1120 454 998 454 870 
L 454 211 
C 454 108 454 -32 634 -32 
C 710 -32 768 -32 864 230 
C 1158 -32 1491 -32 1690 -32 
C 2874 -32 2874 734 2874 798 
C 2874 1461 2080 1596 1773 1640 
C 1210 1736 826 1800 826 2068 
C 826 2241 1024 2445 1626 2445 
C 2234 2445 2259 2157 2272 1990 
C 2285 1862 2400 1843 2477 1843 
C 2688 1843 2688 1958 2688 2086 
L 2688 2573 
z
" transform="scale(0.015625)"/>
       <path id="CMTT12-61" d="M 2650 1816 
C 2650 2303 2285 2816 1421 2816 
C 1152 2816 531 2816 531 2380 
C 531 2210 653 2115 794 2115 
C 832 2115 1043 2115 1050 2388 
C 1050 2419 1056 2426 1190 2438 
C 1267 2445 1350 2445 1427 2445 
C 1574 2445 1792 2445 2003 2282 
C 2234 2100 2234 1916 2234 1728 
C 1856 1728 1485 1728 1088 1599 
C 768 1489 358 1256 358 816 
C 358 356 762 -32 1357 -32 
C 1562 -32 1958 0 2291 226 
C 2419 0 2739 0 2982 0 
C 3136 0 3290 0 3290 183 
C 3290 365 3123 365 3034 365 
C 2867 365 2739 378 2650 417 
L 2650 1816 
z
M 2234 851 
C 2234 704 2234 569 1971 448 
C 1747 339 1446 339 1427 339 
C 1050 339 774 544 774 806 
C 774 1184 1459 1401 2234 1401 
L 2234 851 
z
" transform="scale(0.015625)"/>
       <path id="CMTT12-74" d="M 1382 2381 
L 2419 2381 
C 2509 2381 2675 2381 2675 2567 
C 2675 2752 2509 2752 2419 2752 
L 1382 2752 
L 1382 3285 
C 1382 3402 1382 3552 1178 3552 
C 966 3552 966 3402 966 3285 
L 966 2752 
L 422 2752 
C 333 2752 160 2752 160 2567 
C 160 2381 326 2381 416 2381 
L 966 2381 
L 966 776 
C 966 184 1376 -32 1837 -32 
C 2182 -32 2816 139 2816 790 
C 2816 918 2816 1058 2605 1058 
C 2400 1058 2400 918 2400 785 
C 2394 403 2029 339 1882 339 
C 1382 339 1382 657 1382 809 
L 1382 2381 
z
" transform="scale(0.015625)"/>
      </defs>
      <use xlink:href="#CMTT12-53" transform="scale(0.996264)"/>
      <use xlink:href="#CMTT12-75" transform="translate(51.266111 0) scale(0.996264)"/>
      <use xlink:href="#CMTT12-63" transform="translate(102.532222 0) scale(0.996264)"/>
      <use xlink:href="#CMTT12-63" transform="translate(153.798333 0) scale(0.996264)"/>
      <use xlink:href="#CMTT12-65" transform="translate(205.064443 0) scale(0.996264)"/>
      <use xlink:href="#CMTT12-73" transform="translate(256.330554 0) scale(0.996264)"/>
      <use xlink:href="#CMTT12-73" transform="translate(307.596665 0) scale(0.996264)"/>
      <use xlink:href="#CMTT12-52" transform="translate(410.128887 0) scale(0.996264)"/>
      <use xlink:href="#CMTT12-61" transform="translate(461.394998 0) scale(0.996264)"/>
      <use xlink:href="#CMTT12-74" transform="translate(512.661108 0) scale(0.996264)"/>
      <use xlink:href="#CMTT12-65" transform="translate(563.927219 0) scale(0.996264)"/>
     </g>
    </g>
   </g>
   <g id="patch_3">
    <path d="M 56.050175 174.896199 
L 78.370175 174.896199 
L 78.370175 169.921771 
L 56.050175 169.921771 
z
" clip-path="url(#pebedeeb9c2)" style="fill: #f3f3f3; stroke: #878787; stroke-width: 1.5; stroke-linejoin: miter"/>
   </g>
   <g id="patch_4">
    <path d="M 83.950175 174.896199 
L 106.270175 174.896199 
L 106.270175 168.322848 
L 83.950175 168.322848 
z
" clip-path="url(#pebedeeb9c2)" style="fill: #f3f3f3; stroke: #878787; stroke-width: 1.5; stroke-linejoin: miter"/>
   </g>
   <g id="patch_5">
    <path d="M 111.850175 174.896199 
L 134.170175 174.896199 
L 134.170175 157.130385 
L 111.850175 157.130385 
z
" clip-path="url(#pebedeeb9c2)" style="fill: #f3f3f3; stroke: #878787; stroke-width: 1.5; stroke-linejoin: miter"/>
   </g>
   <g id="patch_6">
    <path d="M 139.750175 174.896199 
L 162.070175 174.896199 
L 162.070175 112.360533 
L 139.750175 112.360533 
z
" clip-path="url(#pebedeeb9c2)" style="fill: #f3f3f3; stroke: #878787; stroke-width: 1.5; stroke-linejoin: miter"/>
   </g>
   <g id="patch_7">
    <path d="M 167.650175 174.896199 
L 189.970175 174.896199 
L 189.970175 69.900237 
L 167.650175 69.900237 
z
" clip-path="url(#pebedeeb9c2)" style="fill: #f3f3f3; stroke: #878787; stroke-width: 1.5; stroke-linejoin: miter"/>
   </g>
   <g id="patch_8">
    <path d="M 195.550175 174.896199 
L 217.870175 174.896199 
L 217.870175 61.194988 
L 195.550175 61.194988 
z
" clip-path="url(#pebedeeb9c2)" style="fill: #f3f3f3; stroke: #878787; stroke-width: 1.5; stroke-linejoin: miter"/>
   </g>
   <g id="patch_9">
    <path d="M 223.450175 174.896199 
L 245.770175 174.896199 
L 245.770175 48.048285 
L 223.450175 48.048285 
z
" clip-path="url(#pebedeeb9c2)" style="fill: #f3f3f3; stroke: #878787; stroke-width: 1.5; stroke-linejoin: miter"/>
   </g>
   <g id="patch_10">
    <path d="M 251.350175 174.896199 
L 273.670175 174.896199 
L 273.670175 48.225944 
L 251.350175 48.225944 
z
" clip-path="url(#pebedeeb9c2)" style="fill: #edf3fd; stroke: #598be7; stroke-width: 1.5; stroke-linejoin: miter"/>
   </g>
   <g id="line2d_13">
    <path d="M 67.210175 171.698353 
L 67.210175 167.612215 
" clip-path="url(#pebedeeb9c2)" style="fill: none; stroke: #878787; stroke-width: 1.5; stroke-linecap: square"/>
   </g>
   <g id="line2d_14">
    <path d="M 95.110175 169.921771 
L 95.110175 166.723925 
" clip-path="url(#pebedeeb9c2)" style="fill: none; stroke: #878787; stroke-width: 1.5; stroke-linecap: square"/>
   </g>
   <g id="line2d_15">
    <path d="M 123.010175 161.39418 
L 123.010175 152.333615 
" clip-path="url(#pebedeeb9c2)" style="fill: none; stroke: #878787; stroke-width: 1.5; stroke-linecap: square"/>
   </g>
   <g id="line2d_16">
    <path d="M 150.910175 116.091354 
L 150.910175 109.518003 
" clip-path="url(#pebedeeb9c2)" style="fill: none; stroke: #878787; stroke-width: 1.5; stroke-linecap: square"/>
   </g>
   <g id="line2d_17">
    <path d="M 178.810175 72.209793 
L 178.810175 67.590681 
" clip-path="url(#pebedeeb9c2)" style="fill: none; stroke: #878787; stroke-width: 1.5; stroke-linecap: square"/>
   </g>
   <g id="line2d_18">
    <path d="M 206.710175 66.169416 
L 206.710175 56.22056 
" clip-path="url(#pebedeeb9c2)" style="fill: none; stroke: #878787; stroke-width: 1.5; stroke-linecap: square"/>
   </g>
   <g id="line2d_19">
    <path d="M 234.610175 54.26632 
L 234.610175 42.896199 
" clip-path="url(#pebedeeb9c2)" style="fill: none; stroke: #878787; stroke-width: 1.5; stroke-linecap: square"/>
   </g>
   <g id="line2d_20">
    <path d="M 262.510175 51.42379 
L 262.510175 45.561071 
" clip-path="url(#pebedeeb9c2)" style="fill: none; stroke: #598be7; stroke-width: 1.5; stroke-linecap: square"/>
   </g>
   <g id="patch_11">
    <path d="M 53.260175 174.896199 
L 53.260175 36.296199 
" style="fill: none; stroke: #000000; stroke-width: 0.8; stroke-linejoin: miter; stroke-linecap: square"/>
   </g>
   <g id="patch_12">
    <path d="M 276.460175 174.896199 
L 276.460175 36.296199 
" style="fill: none; stroke: #000000; stroke-width: 0.8; stroke-linejoin: miter; stroke-linecap: square"/>
   </g>
   <g id="patch_13">
    <path d="M 53.260175 174.896199 
L 276.460175 174.896199 
" style="fill: none; stroke: #000000; stroke-width: 0.8; stroke-linejoin: miter; stroke-linecap: square"/>
   </g>
   <g id="patch_14">
    <path d="M 53.260175 36.296199 
L 276.460175 36.296199 
" style="fill: none; stroke: #000000; stroke-width: 0.8; stroke-linejoin: miter; stroke-linecap: square"/>
   </g>
   <g id="text_12">
    <!-- \texttt{humanoidmaze-giant} -->
    <g transform="translate(63.353344 20.594199) scale(0.22 -0.22)">
     <defs>
      <path id="CMTT12-68" d="M 2675 1879 
C 2675 2507 2381 2803 1856 2803 
C 1421 2803 1139 2560 1030 2438 
L 1030 3644 
C 1030 3841 992 3904 774 3904 
L 352 3904 
C 262 3904 96 3904 96 3719 
C 96 3533 262 3533 352 3533 
L 614 3533 
L 614 371 
L 352 371 
C 262 371 96 371 96 186 
C 96 0 262 0 352 0 
L 1293 0 
C 1382 0 1549 0 1549 186 
C 1549 371 1382 371 1293 371 
L 1030 371 
L 1030 1533 
C 1030 2155 1466 2432 1811 2432 
C 2182 2432 2259 2219 2259 1854 
L 2259 371 
L 1997 371 
C 1907 371 1741 371 1741 186 
C 1741 0 1907 0 1997 0 
L 2938 0 
C 3027 0 3194 0 3194 186 
C 3194 371 3027 371 2938 371 
L 2675 371 
L 2675 1879 
z
" transform="scale(0.015625)"/>
      <path id="CMTT12-6d" d="M 2899 1943 
C 2899 2084 2899 2803 2336 2803 
C 2112 2803 1894 2700 1722 2463 
C 1683 2559 1542 2803 1235 2803 
C 947 2803 749 2613 698 2555 
C 691 2752 557 2752 442 2752 
L 250 2752 
C 160 2752 -6 2752 -6 2567 
C -6 2381 141 2381 339 2381 
L 339 371 
C 134 371 -6 371 -6 186 
C -6 0 160 0 250 0 
L 787 0 
C 877 0 1043 0 1043 186 
C 1043 371 896 371 698 371 
L 698 1552 
C 698 2091 928 2432 1210 2432 
C 1389 2432 1440 2207 1440 1905 
L 1440 371 
C 1331 371 1158 371 1158 186 
C 1158 0 1331 0 1421 0 
L 1888 0 
C 1978 0 2144 0 2144 186 
C 2144 371 1997 371 1798 371 
L 1798 1552 
C 1798 2091 2029 2432 2310 2432 
C 2490 2432 2541 2207 2541 1905 
L 2541 371 
C 2432 371 2259 371 2259 186 
C 2259 0 2432 0 2522 0 
L 2989 0 
C 3078 0 3245 0 3245 186 
C 3245 371 3098 371 2899 371 
L 2899 1943 
z
" transform="scale(0.015625)"/>
      <path id="CMTT12-6e" d="M 2675 1879 
C 2675 2507 2381 2803 1856 2803 
C 1421 2803 1139 2560 1030 2438 
C 1030 2666 1030 2752 774 2752 
L 352 2752 
C 262 2752 96 2752 96 2567 
C 96 2381 262 2381 352 2381 
L 614 2381 
L 614 371 
L 352 371 
C 262 371 96 371 96 186 
C 96 0 262 0 352 0 
L 1293 0 
C 1382 0 1549 0 1549 186 
C 1549 371 1382 371 1293 371 
L 1030 371 
L 1030 1533 
C 1030 2155 1466 2432 1811 2432 
C 2182 2432 2259 2219 2259 1854 
L 2259 371 
L 1997 371 
C 1907 371 1741 371 1741 186 
C 1741 0 1907 0 1997 0 
L 2938 0 
C 3027 0 3194 0 3194 186 
C 3194 371 3027 371 2938 371 
L 2675 371 
L 2675 1879 
z
" transform="scale(0.015625)"/>
      <path id="CMTT12-6f" d="M 2918 1385 
C 2918 2183 2336 2816 1645 2816 
C 954 2816 371 2183 371 1385 
C 371 581 960 -32 1645 -32 
C 2330 -32 2918 581 2918 1385 
z
M 1645 339 
C 1184 339 787 824 787 1430 
C 787 2023 1197 2445 1645 2445 
C 2093 2445 2502 2023 2502 1430 
C 2502 818 2106 339 1645 339 
z
" transform="scale(0.015625)"/>
      <path id="CMTT12-69" d="M 1933 3616 
C 1933 3776 1805 3904 1645 3904 
C 1485 3904 1357 3776 1357 3616 
C 1357 3456 1485 3328 1645 3328 
C 1805 3328 1933 3456 1933 3616 
z
M 832 2752 
C 742 2752 576 2752 576 2567 
C 576 2381 742 2381 832 2381 
L 1517 2381 
L 1517 371 
L 787 371 
C 698 371 525 371 525 186 
C 525 0 698 0 787 0 
L 2566 0 
C 2656 0 2822 0 2822 186 
C 2822 371 2656 371 2566 371 
L 1933 371 
L 1933 2491 
C 1933 2688 1894 2752 1677 2752 
L 832 2752 
z
" transform="scale(0.015625)"/>
      <path id="CMTT12-64" d="M 2675 3642 
C 2675 3840 2637 3904 2419 3904 
L 1997 3904 
C 1907 3904 1741 3904 1741 3719 
C 1741 3533 1907 3533 1997 3533 
L 2259 3533 
L 2259 2483 
C 2157 2585 1894 2803 1504 2803 
C 826 2803 237 2188 237 1382 
C 237 595 787 -32 1446 -32 
C 1862 -32 2138 215 2259 355 
C 2259 84 2259 0 2515 0 
L 2938 0 
C 3027 0 3194 0 3194 186 
C 3194 371 3027 371 2938 371 
L 2675 371 
L 2675 3642 
z
M 2259 1222 
C 2259 864 1965 339 1485 339 
C 1024 339 653 806 653 1382 
C 653 1996 1088 2432 1542 2432 
C 1958 2432 2259 2054 2259 1721 
L 2259 1222 
z
" transform="scale(0.015625)"/>
      <path id="CMTT12-7a" d="M 2861 2331 
C 2938 2400 2963 2426 2963 2541 
C 2963 2752 2822 2752 2701 2752 
L 570 2752 
C 358 2752 307 2701 307 2490 
L 307 2235 
C 307 2120 307 1973 512 1973 
C 723 1973 723 2113 723 2234 
L 723 2381 
L 2342 2381 
L 307 421 
C 230 352 205 326 205 211 
C 205 0 346 0 467 0 
L 2726 0 
C 2938 0 2982 58 2982 262 
L 2982 588 
C 2982 703 2982 850 2778 850 
C 2566 850 2566 709 2566 589 
L 2566 371 
L 826 371 
L 2861 2331 
z
" transform="scale(0.015625)"/>
      <path id="CMTT12-67" d="M 1216 422 
C 1139 422 845 422 845 769 
C 845 891 864 916 890 967 
C 1018 877 1229 794 1459 794 
C 2042 794 2490 1261 2490 1810 
C 2490 1970 2451 2169 2317 2380 
C 2483 2459 2637 2477 2733 2477 
C 2771 2304 2957 2304 2963 2304 
C 3040 2304 3200 2355 3200 2547 
C 3200 2669 3104 2880 2746 2880 
C 2630 2880 2342 2852 2074 2618 
C 1862 2765 1645 2816 1466 2816 
C 883 2816 435 2353 435 1806 
C 435 1666 467 1425 646 1197 
C 525 1018 506 826 506 749 
C 506 525 614 346 666 288 
C 314 95 186 -252 186 -502 
C 186 -1035 832 -1440 1645 -1440 
C 2458 -1440 3104 -1042 3104 -502 
C 3104 422 1971 422 1760 422 
L 1216 422 
z
M 1459 1152 
C 1139 1152 851 1431 851 1805 
C 851 2179 1146 2457 1459 2457 
C 1798 2457 2074 2166 2074 1805 
C 2074 1443 1798 1152 1459 1152 
z
M 1645 -1081 
C 1018 -1081 550 -799 550 -502 
C 550 -405 582 -180 819 -33 
C 966 64 1030 64 1472 64 
C 2035 64 2739 64 2739 -502 
C 2739 -799 2272 -1081 1645 -1081 
z
" transform="scale(0.015625)"/>
     </defs>
     <use xlink:href="#CMTT12-68" transform="scale(0.996264)"/>
     <use xlink:href="#CMTT12-75" transform="translate(51.266111 0) scale(0.996264)"/>
     <use xlink:href="#CMTT12-6d" transform="translate(102.532222 0) scale(0.996264)"/>
     <use xlink:href="#CMTT12-61" transform="translate(153.798333 0) scale(0.996264)"/>
     <use xlink:href="#CMTT12-6e" transform="translate(205.064443 0) scale(0.996264)"/>
     <use xlink:href="#CMTT12-6f" transform="translate(256.330554 0) scale(0.996264)"/>
     <use xlink:href="#CMTT12-69" transform="translate(307.596665 0) scale(0.996264)"/>
     <use xlink:href="#CMTT12-64" transform="translate(358.862776 0) scale(0.996264)"/>
     <use xlink:href="#CMTT12-6d" transform="translate(410.128887 0) scale(0.996264)"/>
     <use xlink:href="#CMTT12-61" transform="translate(461.394998 0) scale(0.996264)"/>
     <use xlink:href="#CMTT12-7a" transform="translate(512.661108 0) scale(0.996264)"/>
     <use xlink:href="#CMTT12-65" transform="translate(563.927219 0) scale(0.996264)"/>
     <use xlink:href="#CMTT12-2d" transform="translate(615.19333 0) scale(0.996264)"/>
     <use xlink:href="#CMTT12-67" transform="translate(666.459441 0) scale(0.996264)"/>
     <use xlink:href="#CMTT12-69" transform="translate(717.725552 0) scale(0.996264)"/>
     <use xlink:href="#CMTT12-61" transform="translate(768.991663 0) scale(0.996264)"/>
     <use xlink:href="#CMTT12-6e" transform="translate(820.257774 0) scale(0.996264)"/>
     <use xlink:href="#CMTT12-74" transform="translate(871.523884 0) scale(0.996264)"/>
    </g>
   </g>
  </g>
  <g id="axes_2">
   <g id="patch_15">
    <path d="M 332.260175 174.896199 
L 555.460175 174.896199 
L 555.460175 36.296199 
L 332.260175 36.296199 
z
" style="fill: #ffffff"/>
   </g>
   <g id="matplotlib.axis_3">
    <g id="xtick_9">
     <g id="line2d_21">
      <g>
       <use xlink:href="#mc352634326" x="346.210175" y="174.896199" style="stroke: #000000; stroke-width: 0.8"/>
      </g>
     </g>
     <g id="text_13">
      <!-- \texttt{TD-1} -->
      <g transform="translate(324.97851 214.017495) rotate(-40) scale(0.18 -0.18)">
       <use xlink:href="#CMTT12-54" transform="scale(0.996264)"/>
       <use xlink:href="#CMTT12-44" transform="translate(51.266111 0) scale(0.996264)"/>
       <use xlink:href="#CMTT12-2d" transform="translate(102.532222 0) scale(0.996264)"/>
       <use xlink:href="#CMTT12-31" transform="translate(153.798333 0) scale(0.996264)"/>
      </g>
     </g>
    </g>
    <g id="xtick_10">
     <g id="line2d_22">
      <g>
       <use xlink:href="#mc352634326" x="374.110175" y="174.896199" style="stroke: #000000; stroke-width: 0.8"/>
      </g>
     </g>
     <g id="text_14">
      <!-- \texttt{TD-5} -->
      <g transform="translate(352.87851 214.017495) rotate(-40) scale(0.18 -0.18)">
       <use xlink:href="#CMTT12-54" transform="scale(0.996264)"/>
       <use xlink:href="#CMTT12-44" transform="translate(51.266111 0) scale(0.996264)"/>
       <use xlink:href="#CMTT12-2d" transform="translate(102.532222 0) scale(0.996264)"/>
       <use xlink:href="#CMTT12-35" transform="translate(153.798333 0) scale(0.996264)"/>
      </g>
     </g>
    </g>
    <g id="xtick_11">
     <g id="line2d_23">
      <g>
       <use xlink:href="#mc352634326" x="402.010175" y="174.896199" style="stroke: #000000; stroke-width: 0.8"/>
      </g>
     </g>
     <g id="text_15">
      <!-- \texttt{TD-10} -->
      <g transform="translate(373.709534 219.94907) rotate(-40) scale(0.18 -0.18)">
       <use xlink:href="#CMTT12-54" transform="scale(0.996264)"/>
       <use xlink:href="#CMTT12-44" transform="translate(51.266111 0) scale(0.996264)"/>
       <use xlink:href="#CMTT12-2d" transform="translate(102.532222 0) scale(0.996264)"/>
       <use xlink:href="#CMTT12-31" transform="translate(153.798333 0) scale(0.996264)"/>
       <use xlink:href="#CMTT12-30" transform="translate(205.064443 0) scale(0.996264)"/>
      </g>
     </g>
    </g>
    <g id="xtick_12">
     <g id="line2d_24">
      <g>
       <use xlink:href="#mc352634326" x="429.910175" y="174.896199" style="stroke: #000000; stroke-width: 0.8"/>
      </g>
     </g>
     <g id="text_16">
      <!-- \texttt{TD-25} -->
      <g transform="translate(401.609534 219.94907) rotate(-40) scale(0.18 -0.18)">
       <use xlink:href="#CMTT12-54" transform="scale(0.996264)"/>
       <use xlink:href="#CMTT12-44" transform="translate(51.266111 0) scale(0.996264)"/>
       <use xlink:href="#CMTT12-2d" transform="translate(102.532222 0) scale(0.996264)"/>
       <use xlink:href="#CMTT12-32" transform="translate(153.798333 0) scale(0.996264)"/>
       <use xlink:href="#CMTT12-35" transform="translate(205.064443 0) scale(0.996264)"/>
      </g>
     </g>
    </g>
    <g id="xtick_13">
     <g id="line2d_25">
      <g>
       <use xlink:href="#mc352634326" x="457.810175" y="174.896199" style="stroke: #000000; stroke-width: 0.8"/>
      </g>
     </g>
     <g id="text_17">
      <!-- \texttt{TD-50} -->
      <g transform="translate(429.509534 219.94907) rotate(-40) scale(0.18 -0.18)">
       <use xlink:href="#CMTT12-54" transform="scale(0.996264)"/>
       <use xlink:href="#CMTT12-44" transform="translate(51.266111 0) scale(0.996264)"/>
       <use xlink:href="#CMTT12-2d" transform="translate(102.532222 0) scale(0.996264)"/>
       <use xlink:href="#CMTT12-35" transform="translate(153.798333 0) scale(0.996264)"/>
       <use xlink:href="#CMTT12-30" transform="translate(205.064443 0) scale(0.996264)"/>
      </g>
     </g>
    </g>
    <g id="xtick_14">
     <g id="line2d_26">
      <g>
       <use xlink:href="#mc352634326" x="485.710175" y="174.896199" style="stroke: #000000; stroke-width: 0.8"/>
      </g>
     </g>
     <g id="text_18">
      <!-- \texttt{TD-100} -->
      <g transform="translate(450.340559 225.880644) rotate(-40) scale(0.18 -0.18)">
       <use xlink:href="#CMTT12-54" transform="scale(0.996264)"/>
       <use xlink:href="#CMTT12-44" transform="translate(51.266111 0) scale(0.996264)"/>
       <use xlink:href="#CMTT12-2d" transform="translate(102.532222 0) scale(0.996264)"/>
       <use xlink:href="#CMTT12-31" transform="translate(153.798333 0) scale(0.996264)"/>
       <use xlink:href="#CMTT12-30" transform="translate(205.064443 0) scale(0.996264)"/>
       <use xlink:href="#CMTT12-30" transform="translate(256.330554 0) scale(0.996264)"/>
      </g>
     </g>
    </g>
    <g id="xtick_15">
     <g id="line2d_27">
      <g>
       <use xlink:href="#mc352634326" x="513.610175" y="174.896199" style="stroke: #000000; stroke-width: 0.8"/>
      </g>
     </g>
     <g id="text_19">
      <!-- \texttt{MC} -->
      <g transform="translate(506.516461 202.154345) rotate(-40) scale(0.18 -0.18)">
       <use xlink:href="#CMTT12-4d" transform="scale(0.996264)"/>
       <use xlink:href="#CMTT12-43" transform="translate(51.266111 0) scale(0.996264)"/>
      </g>
     </g>
    </g>
    <g id="xtick_16">
     <g id="line2d_28">
      <g>
       <use xlink:href="#mc352634326" x="541.510175" y="174.896199" style="stroke: #000000; stroke-width: 0.8"/>
      </g>
     </g>
     <g id="text_20">
      <!-- \texttt{TRL} -->
      <g style="fill: #598be7" transform="translate(527.347486 208.08592) rotate(-40) scale(0.18 -0.18)">
       <use xlink:href="#CMTT12-54" transform="scale(0.996264)"/>
       <use xlink:href="#CMTT12-52" transform="translate(51.266111 0) scale(0.996264)"/>
       <use xlink:href="#CMTT12-4c" transform="translate(102.532222 0) scale(0.996264)"/>
      </g>
     </g>
    </g>
   </g>
   <g id="matplotlib.axis_4">
    <g id="ytick_3">
     <g id="line2d_29">
      <path d="M 332.260175 174.896199 
L 555.460175 174.896199 
" clip-path="url(#p67be2812dd)" style="fill: none; stroke-dasharray: 2.96,1.28; stroke-dashoffset: 0; stroke: #dddddd; stroke-width: 0.8"/>
     </g>
     <g id="line2d_30">
      <g>
       <use xlink:href="#mde31e0416b" x="332.260175" y="174.896199" style="stroke: #000000; stroke-width: 0.8"/>
      </g>
     </g>
     <g id="text_21">
      <!-- 0 -->
      <g transform="translate(316.032282 180.375644) scale(0.18 -0.18)">
       <use xlink:href="#CMTT12-30" transform="scale(0.996264)"/>
      </g>
     </g>
    </g>
    <g id="ytick_4">
     <g id="line2d_31">
      <path d="M 332.260175 108.601556 
L 555.460175 108.601556 
" clip-path="url(#p67be2812dd)" style="fill: none; stroke-dasharray: 2.96,1.28; stroke-dashoffset: 0; stroke: #dddddd; stroke-width: 0.8"/>
     </g>
     <g id="line2d_32">
      <g>
       <use xlink:href="#mde31e0416b" x="332.260175" y="108.601556" style="stroke: #000000; stroke-width: 0.8"/>
      </g>
     </g>
     <g id="text_22">
      <!-- 50 -->
      <g transform="translate(306.80439 114.081001) scale(0.18 -0.18)">
       <use xlink:href="#CMTT12-35" transform="scale(0.996264)"/>
       <use xlink:href="#CMTT12-30" transform="translate(51.266111 0) scale(0.996264)"/>
      </g>
     </g>
    </g>
    <g id="ytick_5">
     <g id="line2d_33">
      <path d="M 332.260175 42.306914 
L 555.460175 42.306914 
" clip-path="url(#p67be2812dd)" style="fill: none; stroke-dasharray: 2.96,1.28; stroke-dashoffset: 0; stroke: #dddddd; stroke-width: 0.8"/>
     </g>
     <g id="line2d_34">
      <g>
       <use xlink:href="#mde31e0416b" x="332.260175" y="42.306914" style="stroke: #000000; stroke-width: 0.8"/>
      </g>
     </g>
     <g id="text_23">
      <!-- 100 -->
      <g transform="translate(297.576498 47.786358) scale(0.18 -0.18)">
       <use xlink:href="#CMTT12-31" transform="scale(0.996264)"/>
       <use xlink:href="#CMTT12-30" transform="translate(51.266111 0) scale(0.996264)"/>
       <use xlink:href="#CMTT12-30" transform="translate(102.532222 0) scale(0.996264)"/>
      </g>
     </g>
    </g>
   </g>
   <g id="patch_16">
    <path d="M 335.050175 174.896199 
L 357.370175 174.896199 
L 357.370175 149.998878 
L 335.050175 149.998878 
z
" clip-path="url(#p67be2812dd)" style="fill: #f3f3f3; stroke: #878787; stroke-width: 1.5; stroke-linejoin: miter"/>
   </g>
   <g id="patch_17">
    <path d="M 362.950175 174.896199 
L 385.270175 174.896199 
L 385.270175 89.744414 
L 362.950175 89.744414 
z
" clip-path="url(#p67be2812dd)" style="fill: #f3f3f3; stroke: #878787; stroke-width: 1.5; stroke-linejoin: miter"/>
   </g>
   <g id="patch_18">
    <path d="M 390.850175 174.896199 
L 413.170175 174.896199 
L 413.170175 54.681914 
L 390.850175 54.681914 
z
" clip-path="url(#p67be2812dd)" style="fill: #f3f3f3; stroke: #878787; stroke-width: 1.5; stroke-linejoin: miter"/>
   </g>
   <g id="patch_19">
    <path d="M 418.750175 174.896199 
L 441.070175 174.896199 
L 441.070175 43.780128 
L 418.750175 43.780128 
z
" clip-path="url(#p67be2812dd)" style="fill: #f3f3f3; stroke: #878787; stroke-width: 1.5; stroke-linejoin: miter"/>
   </g>
   <g id="patch_20">
    <path d="M 446.650175 174.896199 
L 468.970175 174.896199 
L 468.970175 43.780128 
L 446.650175 43.780128 
z
" clip-path="url(#p67be2812dd)" style="fill: #f3f3f3; stroke: #878787; stroke-width: 1.5; stroke-linejoin: miter"/>
   </g>
   <g id="patch_21">
    <path d="M 474.550175 174.896199 
L 496.870175 174.896199 
L 496.870175 54.092628 
L 474.550175 54.092628 
z
" clip-path="url(#p67be2812dd)" style="fill: #f3f3f3; stroke: #878787; stroke-width: 1.5; stroke-linejoin: miter"/>
   </g>
   <g id="patch_22">
    <path d="M 502.450175 174.896199 
L 524.770175 174.896199 
L 524.770175 113.168521 
L 502.450175 113.168521 
z
" clip-path="url(#p67be2812dd)" style="fill: #f3f3f3; stroke: #878787; stroke-width: 1.5; stroke-linejoin: miter"/>
   </g>
   <g id="patch_23">
    <path d="M 530.350175 174.896199 
L 552.670175 174.896199 
L 552.670175 45.842628 
L 530.350175 45.842628 
z
" clip-path="url(#p67be2812dd)" style="fill: #edf3fd; stroke: #598be7; stroke-width: 1.5; stroke-linejoin: miter"/>
   </g>
   <g id="line2d_35">
    <path d="M 346.210175 151.766735 
L 346.210175 148.378342 
" clip-path="url(#p67be2812dd)" style="fill: none; stroke: #878787; stroke-width: 1.5; stroke-linecap: square"/>
   </g>
   <g id="line2d_36">
    <path d="M 374.110175 101.382806 
L 374.110175 82.525664 
" clip-path="url(#p67be2812dd)" style="fill: none; stroke: #878787; stroke-width: 1.5; stroke-linecap: square"/>
   </g>
   <g id="line2d_37">
    <path d="M 402.010175 56.155128 
L 402.010175 53.503342 
" clip-path="url(#p67be2812dd)" style="fill: none; stroke: #878787; stroke-width: 1.5; stroke-linecap: square"/>
   </g>
   <g id="line2d_38">
    <path d="M 429.910175 44.958699 
L 429.910175 42.896199 
" clip-path="url(#p67be2812dd)" style="fill: none; stroke: #878787; stroke-width: 1.5; stroke-linecap: square"/>
   </g>
   <g id="line2d_39">
    <path d="M 457.810175 44.664056 
L 457.810175 42.896199 
" clip-path="url(#p67be2812dd)" style="fill: none; stroke: #878787; stroke-width: 1.5; stroke-linecap: square"/>
   </g>
   <g id="line2d_40">
    <path d="M 485.710175 61.900664 
L 485.710175 46.579235 
" clip-path="url(#p67be2812dd)" style="fill: none; stroke: #878787; stroke-width: 1.5; stroke-linecap: square"/>
   </g>
   <g id="line2d_41">
    <path d="M 513.610175 120.387271 
L 513.610175 106.244414 
" clip-path="url(#p67be2812dd)" style="fill: none; stroke: #878787; stroke-width: 1.5; stroke-linecap: square"/>
   </g>
   <g id="line2d_42">
    <path d="M 541.510175 47.315842 
L 541.510175 44.664056 
" clip-path="url(#p67be2812dd)" style="fill: none; stroke: #598be7; stroke-width: 1.5; stroke-linecap: square"/>
   </g>
   <g id="patch_24">
    <path d="M 332.260175 174.896199 
L 332.260175 36.296199 
" style="fill: none; stroke: #000000; stroke-width: 0.8; stroke-linejoin: miter; stroke-linecap: square"/>
   </g>
   <g id="patch_25">
    <path d="M 555.460175 174.896199 
L 555.460175 36.296199 
" style="fill: none; stroke: #000000; stroke-width: 0.8; stroke-linejoin: miter; stroke-linecap: square"/>
   </g>
   <g id="patch_26">
    <path d="M 332.260175 174.896199 
L 555.460175 174.896199 
" style="fill: none; stroke: #000000; stroke-width: 0.8; stroke-linejoin: miter; stroke-linecap: square"/>
   </g>
   <g id="patch_27">
    <path d="M 332.260175 36.296199 
L 555.460175 36.296199 
" style="fill: none; stroke: #000000; stroke-width: 0.8; stroke-linejoin: miter; stroke-linecap: square"/>
   </g>
   <g id="text_24">
    <!-- \texttt{puzzle-4x5} -->
    <g transform="translate(387.467491 20.594199) scale(0.22 -0.22)">
     <defs>
      <path id="CMTT12-70" d="M 1293 -1408 
C 1382 -1408 1549 -1408 1549 -1222 
C 1549 -1037 1382 -1037 1293 -1037 
L 1030 -1037 
L 1030 326 
C 1184 153 1421 -32 1779 -32 
C 2458 -32 3053 579 3053 1395 
C 3053 2186 2515 2816 1850 2816 
C 1382 2816 1088 2533 1030 2469 
C 1030 2664 1030 2752 774 2752 
L 352 2752 
C 262 2752 96 2752 96 2567 
C 96 2381 262 2381 352 2381 
L 614 2381 
L 614 -1037 
L 352 -1037 
C 262 -1037 96 -1037 96 -1222 
C 96 -1408 262 -1408 352 -1408 
L 1293 -1408 
z
M 1030 1717 
C 1030 2084 1389 2445 1805 2445 
C 2266 2445 2637 1974 2637 1395 
C 2637 777 2202 339 1747 339 
C 1267 339 1030 886 1030 1208 
L 1030 1717 
z
" transform="scale(0.015625)"/>
      <path id="CMTT12-6c" d="M 1856 3642 
C 1856 3840 1818 3904 1600 3904 
L 659 3904 
C 570 3904 403 3904 403 3719 
C 403 3533 570 3533 659 3533 
L 1440 3533 
L 1440 371 
L 659 371 
C 570 371 403 371 403 186 
C 403 0 570 0 659 0 
L 2637 0 
C 2726 0 2893 0 2893 186 
C 2893 371 2726 371 2637 371 
L 1856 371 
L 1856 3642 
z
" transform="scale(0.015625)"/>
      <path id="CMTT12-34" d="M 243 1547 
C 186 1464 186 1451 186 1337 
C 186 1114 269 1088 442 1088 
L 2010 1088 
L 2010 371 
L 1626 371 
C 1536 371 1370 371 1370 186 
C 1370 0 1536 0 1626 0 
L 2752 0 
C 2842 0 3008 0 3008 186 
C 3008 371 2842 371 2752 371 
L 2368 371 
L 2368 1088 
L 2848 1088 
C 2938 1088 3104 1088 3104 1274 
C 3104 1459 2938 1459 2848 1459 
L 2368 1459 
L 2368 3739 
C 2368 3949 2323 4000 2106 4000 
L 1958 4000 
C 1805 4000 1773 3994 1696 3873 
L 243 1547 
z
M 614 1459 
L 2010 3688 
L 2010 1459 
L 614 1459 
z
" transform="scale(0.015625)"/>
      <path id="CMTT12-78" d="M 1805 1418 
L 2541 2381 
L 2765 2381 
C 2854 2381 3021 2381 3021 2567 
C 3021 2752 2854 2752 2765 2752 
L 2054 2752 
C 1965 2752 1798 2752 1798 2567 
C 1798 2381 1952 2381 2106 2381 
L 1626 1724 
L 1133 2381 
C 1280 2381 1434 2381 1434 2567 
C 1434 2752 1267 2752 1178 2752 
L 467 2752 
C 378 2752 211 2752 211 2567 
C 211 2381 378 2381 467 2381 
L 691 2381 
L 1453 1417 
L 653 371 
L 435 371 
C 346 371 173 371 173 186 
C 173 0 346 0 435 0 
L 1139 0 
C 1229 0 1395 0 1395 186 
C 1395 371 1248 371 1075 371 
L 1626 1175 
L 2202 371 
C 2042 371 1888 371 1888 186 
C 1888 0 2054 0 2144 0 
L 2854 0 
C 2944 0 3110 0 3110 186 
C 3110 371 2944 371 2854 371 
L 2630 371 
L 1805 1418 
z
" transform="scale(0.015625)"/>
     </defs>
     <use xlink:href="#CMTT12-70" transform="scale(0.996264)"/>
     <use xlink:href="#CMTT12-75" transform="translate(51.266111 0) scale(0.996264)"/>
     <use xlink:href="#CMTT12-7a" transform="translate(102.532222 0) scale(0.996264)"/>
     <use xlink:href="#CMTT12-7a" transform="translate(153.798333 0) scale(0.996264)"/>
     <use xlink:href="#CMTT12-6c" transform="translate(205.064443 0) scale(0.996264)"/>
     <use xlink:href="#CMTT12-65" transform="translate(256.330554 0) scale(0.996264)"/>
     <use xlink:href="#CMTT12-2d" transform="translate(307.596665 0) scale(0.996264)"/>
     <use xlink:href="#CMTT12-34" transform="translate(358.862776 0) scale(0.996264)"/>
     <use xlink:href="#CMTT12-78" transform="translate(410.128887 0) scale(0.996264)"/>
     <use xlink:href="#CMTT12-35" transform="translate(461.394998 0) scale(0.996264)"/>
    </g>
   </g>
  </g>
  <g id="axes_3">
   <g id="patch_28">
    <path d="M 611.260175 174.896199 
L 834.460175 174.896199 
L 834.460175 36.296199 
L 611.260175 36.296199 
z
" style="fill: #ffffff"/>
   </g>
   <g id="matplotlib.axis_5">
    <g id="xtick_17">
     <g id="line2d_43">
      <g>
       <use xlink:href="#mc352634326" x="625.210175" y="174.896199" style="stroke: #000000; stroke-width: 0.8"/>
      </g>
     </g>
     <g id="text_25">
      <!-- \texttt{TD-1} -->
      <g transform="translate(603.97851 214.017495) rotate(-40) scale(0.18 -0.18)">
       <use xlink:href="#CMTT12-54" transform="scale(0.996264)"/>
       <use xlink:href="#CMTT12-44" transform="translate(51.266111 0) scale(0.996264)"/>
       <use xlink:href="#CMTT12-2d" transform="translate(102.532222 0) scale(0.996264)"/>
       <use xlink:href="#CMTT12-31" transform="translate(153.798333 0) scale(0.996264)"/>
      </g>
     </g>
    </g>
    <g id="xtick_18">
     <g id="line2d_44">
      <g>
       <use xlink:href="#mc352634326" x="653.110175" y="174.896199" style="stroke: #000000; stroke-width: 0.8"/>
      </g>
     </g>
     <g id="text_26">
      <!-- \texttt{TD-5} -->
      <g transform="translate(631.87851 214.017495) rotate(-40) scale(0.18 -0.18)">
       <use xlink:href="#CMTT12-54" transform="scale(0.996264)"/>
       <use xlink:href="#CMTT12-44" transform="translate(51.266111 0) scale(0.996264)"/>
       <use xlink:href="#CMTT12-2d" transform="translate(102.532222 0) scale(0.996264)"/>
       <use xlink:href="#CMTT12-35" transform="translate(153.798333 0) scale(0.996264)"/>
      </g>
     </g>
    </g>
    <g id="xtick_19">
     <g id="line2d_45">
      <g>
       <use xlink:href="#mc352634326" x="681.010175" y="174.896199" style="stroke: #000000; stroke-width: 0.8"/>
      </g>
     </g>
     <g id="text_27">
      <!-- \texttt{TD-10} -->
      <g transform="translate(652.709534 219.94907) rotate(-40) scale(0.18 -0.18)">
       <use xlink:href="#CMTT12-54" transform="scale(0.996264)"/>
       <use xlink:href="#CMTT12-44" transform="translate(51.266111 0) scale(0.996264)"/>
       <use xlink:href="#CMTT12-2d" transform="translate(102.532222 0) scale(0.996264)"/>
       <use xlink:href="#CMTT12-31" transform="translate(153.798333 0) scale(0.996264)"/>
       <use xlink:href="#CMTT12-30" transform="translate(205.064443 0) scale(0.996264)"/>
      </g>
     </g>
    </g>
    <g id="xtick_20">
     <g id="line2d_46">
      <g>
       <use xlink:href="#mc352634326" x="708.910175" y="174.896199" style="stroke: #000000; stroke-width: 0.8"/>
      </g>
     </g>
     <g id="text_28">
      <!-- \texttt{TD-25} -->
      <g transform="translate(680.609534 219.94907) rotate(-40) scale(0.18 -0.18)">
       <use xlink:href="#CMTT12-54" transform="scale(0.996264)"/>
       <use xlink:href="#CMTT12-44" transform="translate(51.266111 0) scale(0.996264)"/>
       <use xlink:href="#CMTT12-2d" transform="translate(102.532222 0) scale(0.996264)"/>
       <use xlink:href="#CMTT12-32" transform="translate(153.798333 0) scale(0.996264)"/>
       <use xlink:href="#CMTT12-35" transform="translate(205.064443 0) scale(0.996264)"/>
      </g>
     </g>
    </g>
    <g id="xtick_21">
     <g id="line2d_47">
      <g>
       <use xlink:href="#mc352634326" x="736.810175" y="174.896199" style="stroke: #000000; stroke-width: 0.8"/>
      </g>
     </g>
     <g id="text_29">
      <!-- \texttt{TD-50} -->
      <g transform="translate(708.509534 219.94907) rotate(-40) scale(0.18 -0.18)">
       <use xlink:href="#CMTT12-54" transform="scale(0.996264)"/>
       <use xlink:href="#CMTT12-44" transform="translate(51.266111 0) scale(0.996264)"/>
       <use xlink:href="#CMTT12-2d" transform="translate(102.532222 0) scale(0.996264)"/>
       <use xlink:href="#CMTT12-35" transform="translate(153.798333 0) scale(0.996264)"/>
       <use xlink:href="#CMTT12-30" transform="translate(205.064443 0) scale(0.996264)"/>
      </g>
     </g>
    </g>
    <g id="xtick_22">
     <g id="line2d_48">
      <g>
       <use xlink:href="#mc352634326" x="764.710175" y="174.896199" style="stroke: #000000; stroke-width: 0.8"/>
      </g>
     </g>
     <g id="text_30">
      <!-- \texttt{TD-100} -->
      <g transform="translate(729.340559 225.880644) rotate(-40) scale(0.18 -0.18)">
       <use xlink:href="#CMTT12-54" transform="scale(0.996264)"/>
       <use xlink:href="#CMTT12-44" transform="translate(51.266111 0) scale(0.996264)"/>
       <use xlink:href="#CMTT12-2d" transform="translate(102.532222 0) scale(0.996264)"/>
       <use xlink:href="#CMTT12-31" transform="translate(153.798333 0) scale(0.996264)"/>
       <use xlink:href="#CMTT12-30" transform="translate(205.064443 0) scale(0.996264)"/>
       <use xlink:href="#CMTT12-30" transform="translate(256.330554 0) scale(0.996264)"/>
      </g>
     </g>
    </g>
    <g id="xtick_23">
     <g id="line2d_49">
      <g>
       <use xlink:href="#mc352634326" x="792.610175" y="174.896199" style="stroke: #000000; stroke-width: 0.8"/>
      </g>
     </g>
     <g id="text_31">
      <!-- \texttt{MC} -->
      <g transform="translate(785.516461 202.154345) rotate(-40) scale(0.18 -0.18)">
       <use xlink:href="#CMTT12-4d" transform="scale(0.996264)"/>
       <use xlink:href="#CMTT12-43" transform="translate(51.266111 0) scale(0.996264)"/>
      </g>
     </g>
    </g>
    <g id="xtick_24">
     <g id="line2d_50">
      <g>
       <use xlink:href="#mc352634326" x="820.510175" y="174.896199" style="stroke: #000000; stroke-width: 0.8"/>
      </g>
     </g>
     <g id="text_32">
      <!-- \texttt{TRL} -->
      <g style="fill: #598be7" transform="translate(806.347486 208.08592) rotate(-40) scale(0.18 -0.18)">
       <use xlink:href="#CMTT12-54" transform="scale(0.996264)"/>
       <use xlink:href="#CMTT12-52" transform="translate(51.266111 0) scale(0.996264)"/>
       <use xlink:href="#CMTT12-4c" transform="translate(102.532222 0) scale(0.996264)"/>
      </g>
     </g>
    </g>
   </g>
   <g id="matplotlib.axis_6">
    <g id="ytick_6">
     <g id="line2d_51">
      <path d="M 611.260175 174.896199 
L 834.460175 174.896199 
" clip-path="url(#pffa7189600)" style="fill: none; stroke-dasharray: 2.96,1.28; stroke-dashoffset: 0; stroke: #dddddd; stroke-width: 0.8"/>
     </g>
     <g id="line2d_52">
      <g>
       <use xlink:href="#mde31e0416b" x="611.260175" y="174.896199" style="stroke: #000000; stroke-width: 0.8"/>
      </g>
     </g>
     <g id="text_33">
      <!-- 0 -->
      <g transform="translate(595.032282 180.375644) scale(0.18 -0.18)">
       <use xlink:href="#CMTT12-30" transform="scale(0.996264)"/>
      </g>
     </g>
    </g>
    <g id="ytick_7">
     <g id="line2d_53">
      <path d="M 611.260175 127.089358 
L 834.460175 127.089358 
" clip-path="url(#pffa7189600)" style="fill: none; stroke-dasharray: 2.96,1.28; stroke-dashoffset: 0; stroke: #dddddd; stroke-width: 0.8"/>
     </g>
     <g id="line2d_54">
      <g>
       <use xlink:href="#mde31e0416b" x="611.260175" y="127.089358" style="stroke: #000000; stroke-width: 0.8"/>
      </g>
     </g>
     <g id="text_34">
      <!-- 20 -->
      <g transform="translate(585.80439 132.568803) scale(0.18 -0.18)">
       <use xlink:href="#CMTT12-32" transform="scale(0.996264)"/>
       <use xlink:href="#CMTT12-30" transform="translate(51.266111 0) scale(0.996264)"/>
      </g>
     </g>
    </g>
    <g id="ytick_8">
     <g id="line2d_55">
      <path d="M 611.260175 79.282517 
L 834.460175 79.282517 
" clip-path="url(#pffa7189600)" style="fill: none; stroke-dasharray: 2.96,1.28; stroke-dashoffset: 0; stroke: #dddddd; stroke-width: 0.8"/>
     </g>
     <g id="line2d_56">
      <g>
       <use xlink:href="#mde31e0416b" x="611.260175" y="79.282517" style="stroke: #000000; stroke-width: 0.8"/>
      </g>
     </g>
     <g id="text_35">
      <!-- 40 -->
      <g transform="translate(585.80439 84.761962) scale(0.18 -0.18)">
       <use xlink:href="#CMTT12-34" transform="scale(0.996264)"/>
       <use xlink:href="#CMTT12-30" transform="translate(51.266111 0) scale(0.996264)"/>
      </g>
     </g>
    </g>
   </g>
   <g id="patch_29">
    <path d="M 614.050175 174.896199 
L 636.370175 174.896199 
L 636.370175 144.884127 
L 614.050175 144.884127 
z
" clip-path="url(#pffa7189600)" style="fill: #f3f3f3; stroke: #878787; stroke-width: 1.5; stroke-linejoin: miter"/>
   </g>
   <g id="patch_30">
    <path d="M 641.950175 174.896199 
L 664.270175 174.896199 
L 664.270175 95.749318 
L 641.950175 95.749318 
z
" clip-path="url(#pffa7189600)" style="fill: #f3f3f3; stroke: #878787; stroke-width: 1.5; stroke-linejoin: miter"/>
   </g>
   <g id="patch_31">
    <path d="M 669.850175 174.896199 
L 692.170175 174.896199 
L 692.170175 85.922356 
L 669.850175 85.922356 
z
" clip-path="url(#pffa7189600)" style="fill: #f3f3f3; stroke: #878787; stroke-width: 1.5; stroke-linejoin: miter"/>
   </g>
   <g id="patch_32">
    <path d="M 697.750175 174.896199 
L 720.070175 174.896199 
L 720.070175 58.035032 
L 697.750175 58.035032 
z
" clip-path="url(#pffa7189600)" style="fill: #f3f3f3; stroke: #878787; stroke-width: 1.5; stroke-linejoin: miter"/>
   </g>
   <g id="patch_33">
    <path d="M 725.650175 174.896199 
L 747.970175 174.896199 
L 747.970175 56.175877 
L 725.650175 56.175877 
z
" clip-path="url(#pffa7189600)" style="fill: #f3f3f3; stroke: #878787; stroke-width: 1.5; stroke-linejoin: miter"/>
   </g>
   <g id="patch_34">
    <path d="M 753.550175 174.896199 
L 775.870175 174.896199 
L 775.870175 55.379097 
L 753.550175 55.379097 
z
" clip-path="url(#pffa7189600)" style="fill: #f3f3f3; stroke: #878787; stroke-width: 1.5; stroke-linejoin: miter"/>
   </g>
   <g id="patch_35">
    <path d="M 781.450175 174.896199 
L 803.770175 174.896199 
L 803.770175 87.515918 
L 781.450175 87.515918 
z
" clip-path="url(#pffa7189600)" style="fill: #f3f3f3; stroke: #878787; stroke-width: 1.5; stroke-linejoin: miter"/>
   </g>
   <g id="patch_36">
    <path d="M 809.350175 174.896199 
L 831.670175 174.896199 
L 831.670175 52.457567 
L 809.350175 52.457567 
z
" clip-path="url(#pffa7189600)" style="fill: #edf3fd; stroke: #598be7; stroke-width: 1.5; stroke-linejoin: miter"/>
   </g>
   <g id="line2d_57">
    <path d="M 625.210175 151.789559 
L 625.210175 138.775475 
" clip-path="url(#pffa7189600)" style="fill: none; stroke: #878787; stroke-width: 1.5; stroke-linecap: square"/>
   </g>
   <g id="line2d_58">
    <path d="M 653.110175 98.936441 
L 653.110175 91.234227 
" clip-path="url(#pffa7189600)" style="fill: none; stroke: #878787; stroke-width: 1.5; stroke-linecap: square"/>
   </g>
   <g id="line2d_59">
    <path d="M 681.010175 92.827789 
L 681.010175 79.282517 
" clip-path="url(#pffa7189600)" style="fill: none; stroke: #878787; stroke-width: 1.5; stroke-linecap: square"/>
   </g>
   <g id="line2d_60">
    <path d="M 708.910175 69.189962 
L 708.910175 46.880103 
" clip-path="url(#pffa7189600)" style="fill: none; stroke: #878787; stroke-width: 1.5; stroke-linecap: square"/>
   </g>
   <g id="line2d_61">
    <path d="M 736.810175 59.628594 
L 736.810175 53.519942 
" clip-path="url(#pffa7189600)" style="fill: none; stroke: #878787; stroke-width: 1.5; stroke-linecap: square"/>
   </g>
   <g id="line2d_62">
    <path d="M 764.710175 64.409278 
L 764.710175 46.302437 
" clip-path="url(#pffa7189600)" style="fill: none; stroke: #878787; stroke-width: 1.5; stroke-linecap: square"/>
   </g>
   <g id="line2d_63">
    <path d="M 792.610175 95.749318 
L 792.610175 80.876079 
" clip-path="url(#pffa7189600)" style="fill: none; stroke: #878787; stroke-width: 1.5; stroke-linecap: square"/>
   </g>
   <g id="line2d_64">
    <path d="M 820.510175 62.284529 
L 820.510175 42.896199 
" clip-path="url(#pffa7189600)" style="fill: none; stroke: #598be7; stroke-width: 1.5; stroke-linecap: square"/>
   </g>
   <g id="patch_37">
    <path d="M 611.260175 174.896199 
L 611.260175 36.296199 
" style="fill: none; stroke: #000000; stroke-width: 0.8; stroke-linejoin: miter; stroke-linecap: square"/>
   </g>
   <g id="patch_38">
    <path d="M 834.460175 174.896199 
L 834.460175 36.296199 
" style="fill: none; stroke: #000000; stroke-width: 0.8; stroke-linejoin: miter; stroke-linecap: square"/>
   </g>
   <g id="patch_39">
    <path d="M 611.260175 174.896199 
L 834.460175 174.896199 
" style="fill: none; stroke: #000000; stroke-width: 0.8; stroke-linejoin: miter; stroke-linecap: square"/>
   </g>
   <g id="patch_40">
    <path d="M 611.260175 36.296199 
L 834.460175 36.296199 
" style="fill: none; stroke: #000000; stroke-width: 0.8; stroke-linejoin: miter; stroke-linecap: square"/>
   </g>
   <g id="text_36">
    <!-- \texttt{puzzle-4x6} -->
    <g transform="translate(666.467491 20.594199) scale(0.22 -0.22)">
     <defs>
      <path id="CMTT12-36" d="M 762 2144 
C 826 2997 1382 3648 2010 3648 
C 2138 3648 2285 3629 2381 3524 
C 2355 3491 2330 3459 2330 3361 
C 2330 3238 2419 3100 2586 3100 
C 2752 3100 2848 3223 2848 3372 
C 2848 3715 2586 4019 2016 4019 
C 1178 4019 339 3234 339 1936 
C 339 386 1050 -64 1658 -64 
C 2342 -64 2950 480 2950 1248 
C 2950 1997 2394 2560 1728 2560 
C 1402 2560 1037 2439 762 2144 
z
M 1658 307 
C 973 307 832 1178 832 1184 
C 832 1191 838 1223 838 1242 
C 838 1280 813 1363 813 1440 
C 813 1811 1158 2183 1683 2183 
C 2182 2183 2534 1754 2534 1248 
C 2534 691 2118 307 1658 307 
z
" transform="scale(0.015625)"/>
     </defs>
     <use xlink:href="#CMTT12-70" transform="scale(0.996264)"/>
     <use xlink:href="#CMTT12-75" transform="translate(51.266111 0) scale(0.996264)"/>
     <use xlink:href="#CMTT12-7a" transform="translate(102.532222 0) scale(0.996264)"/>
     <use xlink:href="#CMTT12-7a" transform="translate(153.798333 0) scale(0.996264)"/>
     <use xlink:href="#CMTT12-6c" transform="translate(205.064443 0) scale(0.996264)"/>
     <use xlink:href="#CMTT12-65" transform="translate(256.330554 0) scale(0.996264)"/>
     <use xlink:href="#CMTT12-2d" transform="translate(307.596665 0) scale(0.996264)"/>
     <use xlink:href="#CMTT12-34" transform="translate(358.862776 0) scale(0.996264)"/>
     <use xlink:href="#CMTT12-78" transform="translate(410.128887 0) scale(0.996264)"/>
     <use xlink:href="#CMTT12-36" transform="translate(461.394998 0) scale(0.996264)"/>
    </g>
   </g>
  </g>
 </g>
 <defs>
  <clipPath id="pebedeeb9c2">
   <rect x="53.260175" y="36.296199" width="223.2" height="138.6"/>
  </clipPath>
  <clipPath id="p67be2812dd">
   <rect x="332.260175" y="36.296199" width="223.2" height="138.6"/>
  </clipPath>
  <clipPath id="pffa7189600">
   <rect x="611.260175" y="36.296199" width="223.2" height="138.6"/>
  </clipPath>
 </defs>
</svg>
